Coordinates
version=1
nRows=24
nColumns=24
inDegrees=yes

Units are S.I. units (second, meters, Newtons, ...)
Angles are in degrees.

endheader
time	pelvis_tilt	pelvis_list	pelvis_rotation	pelvis_tx	pelvis_ty	pelvis_tz	hip_flexion_r	hip_adduction_r	hip_rotation_r	knee_angle_r	ankle_angle_r	subtalar_angle_r	mtp_angle_r	hip_flexion_l	hip_adduction_l	hip_rotation_l	knee_angle_l	ankle_angle_l	subtalar_angle_l	mtp_angle_l	lumbar_extension	lumbar_bending	lumbar_rotation
      0.70500000	     -3.59274026	      0.17685300	      2.20893416	     -0.41701257	      1.06098280	      0.27429174	     15.09783053	      3.30640184	     -2.00307387	    -23.85229642	     13.38553477	     -6.01393264	      2.71548989	     23.76254731	     -4.26409940	     -5.19082604	    -72.84812201	      9.62472423	      4.93911866	      4.23412649	    -11.17489194	      3.47206373	      1.09180842
      0.70916667	     -3.48909121	      0.30797665	      2.04428202	     -0.41186603	      1.06218525	      0.27462848	     14.50598076	      3.21045052	     -1.90471610	    -23.49029513	     13.45762647	     -5.80356057	      2.67101087	     24.08541161	     -4.26606281	     -5.56346849	    -72.22854269	     10.03997120	      5.55863285	      4.10071939	    -11.38970607	      3.30257662	      1.37906918
      0.71333333	     -3.47531251	      0.42337808	      1.97684283	     -0.40661036	      1.06322030	      0.27464908	     13.97440917	      3.09239503	     -1.89626942	    -23.06779614	     13.49381724	     -5.69413101	      2.65578944	     24.51496994	     -4.21290987	     -5.82049633	    -71.56461632	     10.20848886	      5.74382801	      4.05459079	    -11.36458008	      3.12625522	      1.47047765
      0.71750000	     -3.36999550	      0.56509564	      1.79093704	     -0.40149818	      1.06436271	      0.27499468	     13.38977576	      2.98316219	     -1.78129294	    -22.71564436	     13.55799584	     -5.48022338	      2.61648128	     24.80392234	     -4.20777693	     -6.22251084	    -70.83928350	     10.58115329	      6.31343856	      3.93276912	    -11.61372794	      2.93610043	      1.78539112
      0.72166667	     -3.29959355	      0.69354603	      1.65665817	     -0.39630348	      1.06542837	      0.27516172	     12.81706577	      2.86502903	     -1.72462151	    -22.31758187	     13.60702903	     -5.31395955	      2.57167979	     25.12432767	     -4.17574972	     -6.55809104	    -70.06612337	     10.82848343	      6.66259960	      3.79108100	    -11.73471501	      2.74495357	      2.08982119
      0.72583333	     -3.31403856	      0.81362393	      1.57576422	     -0.39105454	      1.06630798	      0.27518624	     12.32410559	      2.73651294	     -1.72542190	    -21.90455840	     13.64070177	     -5.21357579	      2.56025305	     25.53839149	     -4.11308962	     -6.82767431	    -69.25483526	     10.96025757	      6.80199269	      3.75416690	    -11.67548876	      2.59047537	      2.15804441
      0.73000000	     -3.21912201	      0.95716982	      1.37013069	     -0.38594320	      1.06732876	      0.27551655	     11.75603069	      2.61570745	     -1.59776092	    -21.55323159	     13.70600830	     -4.98813593	      2.52412468	     25.78711009	     -4.09967121	     -7.24571313	    -68.38219609	     11.27704151	      7.28764638	      3.63298604	    -11.90104664	      2.37727980	      2.47710217
      0.73416667	     -3.23293773	      1.06885728	      1.28318443	     -0.38068975	      1.06813663	      0.27551863	     11.26421177	      2.49126001	     -1.60637449	    -21.13817066	     13.73578251	     -4.88403266	      2.51444245	     26.16593813	     -4.03603326	     -7.51119253	    -67.47564009	     11.39495854	      7.39997018	      3.59925991	    -11.83224338	      2.23632491	      2.55352303
      0.73833333	     -3.15228294	      1.21575145	      1.06573212	     -0.37559343	      1.06903874	      0.27587083	     10.71858732	      2.36287102	     -1.47073117	    -20.79241390	     13.79958763	     -4.63564429	      2.48396000	     26.39484585	     -4.01528510	     -7.93602633	    -66.50648554	     11.67319765	      7.81710638	      3.48769766	    -12.04913288	      1.99628471	      2.88480293
      0.74250000	     -3.17940147	      1.31732632	      0.98343874	     -0.37036210	      1.06972986	      0.27585583	     10.24848704	      2.24406865	     -1.49270755	    -20.38729621	     13.83698046	     -4.54068430	      2.47565484	     26.75791461	     -3.94670805	     -8.17784119	    -65.50920975	     11.77281905	      7.90522653	      3.45638652	    -11.96580746	      1.88523285	      2.96463570
      0.74666667	     -3.09177365	      1.45464819	      0.76999368	     -0.36528094	      1.07054994	      0.27618100	      9.70067030	      2.11671611	     -1.37917032	    -20.04619752	     13.91472914	     -4.28599141	      2.44348019	     26.94588609	     -3.91978525	     -8.58627205	    -64.44732732	     12.01193029	      8.25809075	      3.32997929	    -12.18612144	      1.64102942	      3.34290322
      0.75083333	     -3.13295792	      1.54500751	      0.68796270	     -0.36007640	      1.07111755	      0.27617304	      9.25219857	      2.01000408	     -1.39367918	    -19.64723987	     13.94572965	     -4.19018582	      2.43610758	     27.29024612	     -3.84767712	     -8.79805468	    -63.35663761	     12.09374667	      8.32047557	      3.30025935	    -12.08855029	      1.54619677	      3.40941133
      0.75500000	     -3.04094923	      1.66369104	      0.48869188	     -0.35499819	      1.07184621	      0.27647971	      8.70048241	      1.89452155	     -1.31775727	    -19.30384894	     14.03333107	     -3.95299608	      2.40311047	     27.43766582	     -3.81932967	     -9.17000999	    -62.19729988	     12.27959157	      8.58355435	      3.16509490	    -12.28163540	      1.32150044	      3.78003093
      0.75916667	     -3.11409027	      1.74019173	      0.41223094	     -0.34986716	      1.07222905	      0.27643983	      8.29928635	      1.80032052	     -1.31004398	    -18.92116173	     14.05656155	     -3.85191432	      2.39654926	     27.78883786	     -3.73685885	     -9.34148081	    -61.02337776	     12.34676218	      8.62959484	      3.13697952	    -12.19309864	      1.24287797	      3.83127995
      0.76333333	     -3.16473949	      1.81105425	      0.29858622	     -0.34475163	      1.07259437	      0.27652527	      7.88561378	      1.72125970	     -1.27887949	    -18.55339067	     14.08634152	     -3.72375983	      2.39061393	     28.08449275	     -3.68185827	     -9.55511957	    -59.79682346	     12.42512439	      8.70515215	      3.10879489	    -12.13426940	      1.14153772	      3.90223204
      0.76750000	     -3.14965455	      1.90980263	      0.10898595	     -0.33973753	      1.07299745	      0.27680756	      7.43135258	      1.62238233	     -1.17193253	    -18.22883026	     14.15820416	     -3.47882177	      2.37076505	     28.26818392	     -3.63820010	     -9.86468277	    -58.50746824	     12.53776034	      8.87261151	      3.01920656	    -12.27572394	      0.92153301	      4.18861564
      0.77166667	     -3.21883862	      1.94049728	      0.04801104	     -0.33464399	      1.07321496	      0.27677364	      7.03900762	      1.57517348	     -1.20900393	    -17.86998672	     14.21944365	     -3.40488169	      2.36503465	     28.56015747	     -3.57328249	     -9.97265780	    -57.19917622	     12.58382097	      8.90014821	      2.99182042	    -12.16735248	      0.90558513	      4.26603536
      0.77583333	     -3.28921150	      1.97902079	     -0.03809229	     -0.32959403	      1.07335368	      0.27682364	      6.65460850	      1.52690482	     -1.18914048	    -17.51498779	     14.26264105	     -3.28898456	      2.35938912	     28.82499631	     -3.50752429	    -10.09789771	    -55.83630430	     12.62084726	      8.93252112	      2.96378821	    -12.10162138	      0.83650316	      4.34878657
      0.78000000	     -3.29991754	      2.02975861	     -0.17971973	     -0.32463006	      1.07353132	      0.27701591	      6.22681980	      1.47238654	     -1.12055281	    -17.18258791	     14.32307853	     -3.07491490	      2.34036827	     28.98900143	     -3.45369245	    -10.28071851	    -54.40767054	     12.63695800	      8.95426827	      2.88242124	    -12.20887031	      0.68017656	      4.61547317
      0.78416667	     -3.39561189	      2.01987424	     -0.22728579	     -0.31959067	      1.07350886	      0.27703257	      5.86435791	      1.47503158	     -1.15163856	    -16.81816191	     14.39569992	     -2.99405463	      2.33128131	     29.25299693	     -3.40445590	    -10.32724146	    -52.96759722	     12.65278808	      8.95279661	      2.84437920	    -12.10358722	      0.66812720	      4.71209658
      0.78833333	     -3.48870701	      2.01040823	     -0.28513751	     -0.31462820	      1.07341583	      0.27701920	      5.52761845	      1.47585375	     -1.14615540	    -16.51318582	     14.45265387	     -2.92379996	      2.32610092	     29.48932172	     -3.33396999	    -10.32971204	    -51.46472339	     12.65595657	      8.95726722	      2.82137720	    -12.00653872	      0.69629708	      4.77459268
      0.79250000	     -3.60285000	      1.98489587	     -0.33632583	     -0.30964302	      1.07321759	      0.27705922	      5.19878846	      1.50041621	     -1.13646187	    -16.17431287	     14.50993916	     -2.84179648	      2.32090380	     29.72676413	     -3.27916465	    -10.32092753	    -49.92132921	     12.63807294	      8.93753816	      2.79870263	    -11.91461734	      0.69806099	      4.83888589
      0.79666667	     -3.71271724	      1.94517635	     -0.38222102	     -0.30467953	      1.07297086	      0.27707170	      4.86764850	      1.53934808	     -1.12323498	    -15.84073019	     14.56923950	     -2.76455615	      2.31558016	     29.93833942	     -3.22215165	    -10.28145460	    -48.33044070	     12.60199884	      8.90354458	      2.77704168	    -11.81758889	      0.71860183	      4.90589465
      0.80083333	     -3.82721025	      1.89156428	     -0.41653486	     -0.29972226	      1.07265437	      0.27708090	      4.53666066	      1.59432096	     -1.11014314	    -15.49782608	     14.62969246	     -2.69002817	      2.30910343	     30.13525078	     -3.16589164	    -10.20794458	    -46.69559683	     12.54227987	      8.84365256	      2.75416948	    -11.71858040	      0.73972873	      4.97851452
